<svg width="255" height="44" viewBox="0 0 255 44" fill="none" xmlns="http://www.w3.org/2000/svg">
<g filter="url(#filter0_d)">
<path d="M13.476 16.78H28.524V19.012H13.476V16.78ZM13.476 11.056H28.524V13.288H13.476V11.056ZM13.476 5.368H28.524V7.6H13.476V5.368ZM28.596 29.776C27.228 29.776 27.012 29.632 27.012 28.48V22.756H32.88V1.624H9.336V22.756H13.728C13.116 26.68 11.568 29.092 4.188 30.46C5.016 31.36 6.168 33.124 6.564 34.276C15.456 32.26 17.58 28.48 18.336 22.756H22.692V28.516C22.692 32.548 23.7 33.844 27.984 33.844H32.736C36.3 33.844 37.416 32.368 37.884 26.68C36.768 26.392 34.86 25.672 33.96 24.988C33.78 29.164 33.564 29.776 32.34 29.776H28.596ZM44.148 15.772L46.02 20.452C49.08 19.156 56.28 16.168 60.456 16.168C63.588 16.168 65.604 18.04 65.604 20.74C65.604 25.636 59.556 27.832 51.312 28.048L53.22 32.476C64.668 31.756 70.392 27.328 70.392 20.812C70.392 15.376 66.576 11.992 60.888 11.992C56.532 11.992 50.412 14.044 47.964 14.8C46.884 15.124 45.228 15.556 44.148 15.772ZM75.763 6.232L76.231 11.164C80.407 10.264 87.751 9.472 91.135 9.112C88.723 10.948 85.807 15.052 85.807 20.236C85.807 28.012 92.935 32.08 100.459 32.584L102.151 27.652C96.067 27.328 90.523 25.168 90.523 19.264C90.523 14.98 93.763 10.3 98.119 9.148C100.027 8.716 103.123 8.716 105.067 8.68L105.031 4.072C102.511 4.144 98.551 4.396 94.843 4.684C88.255 5.26 82.315 5.8 79.327 6.052C78.607 6.124 77.203 6.196 75.763 6.232ZM159.196 6.628L156.352 3.964C155.668 4.18 153.688 4.288 152.68 4.288H133.276C131.764 4.288 130.252 4.144 128.884 3.928V8.932C130.576 8.788 131.764 8.68 133.276 8.68H152.032C151.096 10.444 148.288 13.612 145.408 15.376L149.152 18.364C152.68 15.844 156.1 11.308 157.792 8.5C158.116 7.96 158.8 7.096 159.196 6.628ZM144.508 11.488H139.288C139.468 12.64 139.54 13.612 139.54 14.728C139.54 20.632 138.676 24.448 134.104 27.616C132.772 28.588 131.476 29.2 130.324 29.596L134.536 33.016C144.328 27.76 144.508 20.416 144.508 11.488ZM166.233 6.556V11.776C167.457 11.704 169.113 11.632 170.481 11.632H185.349C186.609 11.632 188.301 11.74 189.345 11.776V6.556C188.337 6.664 186.789 6.772 185.349 6.772H170.445C169.221 6.772 167.529 6.7 166.233 6.556ZM163.209 24.16V29.668C164.541 29.56 166.305 29.452 167.709 29.452H188.373C189.453 29.452 191.073 29.524 192.333 29.668V24.16C191.109 24.304 189.597 24.376 188.373 24.376H167.709C166.305 24.376 164.613 24.268 163.209 24.16ZM226.461 4.54L221.097 2.668C220.953 3.604 220.557 5.044 220.233 5.98C219.297 8.824 218.073 11.668 216.237 14.548C213.321 12.388 209.541 9.796 206.661 8.032L203.601 11.704C207.273 13.936 210.729 16.492 213.321 18.544C209.757 22.828 205.509 26.32 199.641 29.164L203.673 32.8C209.757 29.488 213.897 25.492 217.065 21.676C219.945 24.16 222.537 26.68 225.057 29.632L228.765 25.528C226.317 22.936 223.293 20.164 220.125 17.572C222.249 14.26 223.869 10.624 224.949 7.78C225.309 6.952 225.993 5.368 226.461 4.54ZM242.51 23.62L241.898 9.076V2.2H246.542V9.076L245.93 23.62H242.51ZM241.43 31V26.428H247.01V31H241.43Z" fill="black"/>
<path d="M13.476 16.78V15.78H12.476V16.78H13.476ZM28.524 16.78H29.524V15.78H28.524V16.78ZM28.524 19.012V20.012H29.524V19.012H28.524ZM13.476 19.012H12.476V20.012H13.476V19.012ZM13.476 11.056V10.056H12.476V11.056H13.476ZM28.524 11.056H29.524V10.056H28.524V11.056ZM28.524 13.288V14.288H29.524V13.288H28.524ZM13.476 13.288H12.476V14.288H13.476V13.288ZM13.476 5.368V4.368H12.476V5.368H13.476ZM28.524 5.368H29.524V4.368H28.524V5.368ZM28.524 7.6V8.6H29.524V7.6H28.524ZM13.476 7.6H12.476V8.6H13.476V7.6ZM27.012 22.756V21.756H26.012V22.756H27.012ZM32.88 22.756V23.756H33.88V22.756H32.88ZM32.88 1.624H33.88V0.623998H32.88V1.624ZM9.336 1.624V0.623998H8.336V1.624H9.336ZM9.336 22.756H8.336V23.756H9.336V22.756ZM13.728 22.756L14.7161 22.9101L14.8961 21.756H13.728V22.756ZM4.188 30.46L4.00574 29.4767L2.22779 29.8063L3.45207 31.1371L4.188 30.46ZM6.564 34.276L5.61831 34.6011L5.91001 35.4497L6.78511 35.2512L6.564 34.276ZM18.336 22.756V21.756H17.4594L17.3446 22.6251L18.336 22.756ZM22.692 22.756H23.692V21.756H22.692V22.756ZM37.884 26.68L38.8806 26.762L38.9497 25.9223L38.1339 25.7117L37.884 26.68ZM33.96 24.988L34.5651 24.1918L33.0432 23.0352L32.9609 24.9449L33.96 24.988ZM13.476 17.78H28.524V15.78H13.476V17.78ZM27.524 16.78V19.012H29.524V16.78H27.524ZM28.524 18.012H13.476V20.012H28.524V18.012ZM14.476 19.012V16.78H12.476V19.012H14.476ZM13.476 12.056H28.524V10.056H13.476V12.056ZM27.524 11.056V13.288H29.524V11.056H27.524ZM28.524 12.288H13.476V14.288H28.524V12.288ZM14.476 13.288V11.056H12.476V13.288H14.476ZM13.476 6.368H28.524V4.368H13.476V6.368ZM27.524 5.368V7.6H29.524V5.368H27.524ZM28.524 6.6H13.476V8.6H28.524V6.6ZM14.476 7.6V5.368H12.476V7.6H14.476ZM28.596 28.776C28.2579 28.776 28.0518 28.7661 27.9179 28.7463C27.7819 28.7261 27.8289 28.7097 27.9157 28.7791C28.0269 28.8681 28.0471 28.9671 28.0401 28.9377C28.027 28.8824 28.012 28.7558 28.012 28.48H26.012C26.012 28.7802 26.024 29.1036 26.0941 29.3993C26.1704 29.7209 26.3301 30.0719 26.6663 30.3409C26.9781 30.5903 27.3356 30.6819 27.6248 30.7247C27.9162 30.7679 28.2501 30.776 28.596 30.776V28.776ZM28.012 28.48V22.756H26.012V28.48H28.012ZM27.012 23.756H32.88V21.756H27.012V23.756ZM33.88 22.756V1.624H31.88V22.756H33.88ZM32.88 0.623998H9.336V2.624H32.88V0.623998ZM8.336 1.624V22.756H10.336V1.624H8.336ZM9.336 23.756H13.728V21.756H9.336V23.756ZM12.7399 22.6019C12.4486 24.47 11.9628 25.787 10.822 26.8278C9.64347 27.903 7.63454 28.8041 4.00574 29.4767L4.37026 31.4433C8.12146 30.7479 10.5765 29.759 12.17 28.3052C13.8012 26.817 14.3954 24.966 14.7161 22.9101L12.7399 22.6019ZM3.45207 31.1371C3.81368 31.5301 4.273 32.144 4.69277 32.8079C5.1165 33.4781 5.45695 34.1317 5.61831 34.6011L7.50969 33.9509C7.27505 33.2683 6.8415 32.4639 6.38323 31.7391C5.921 31.008 5.39032 30.2899 4.92393 29.7829L3.45207 31.1371ZM6.78511 35.2512C11.3311 34.2206 14.3106 32.7046 16.2413 30.5788C18.1786 28.4458 18.9386 25.8308 19.3274 22.8869L17.3446 22.6251C16.9774 25.4052 16.2974 27.5422 14.7607 29.2342C13.2174 30.9334 10.6889 32.3154 6.34289 33.3008L6.78511 35.2512ZM18.336 23.756H22.692V21.756H18.336V23.756ZM21.692 22.756V28.516H23.692V22.756H21.692ZM21.692 28.516C21.692 30.5339 21.9226 32.2411 23.0069 33.3812C24.1041 34.5348 25.816 34.844 27.984 34.844V32.844C25.868 32.844 24.9339 32.5052 24.4561 32.0028C23.9654 31.4869 23.692 30.5301 23.692 28.516H21.692ZM27.984 34.844H32.736V32.844H27.984V34.844ZM32.736 34.844C34.644 34.844 36.2189 34.4465 37.2806 32.982C38.2465 31.6497 38.6479 29.5911 38.8806 26.762L36.8874 26.598C36.6521 29.4569 36.2615 30.9803 35.6614 31.808C35.1571 32.5035 34.392 32.844 32.736 32.844V34.844ZM38.1339 25.7117C37.6268 25.5809 36.9152 25.3446 36.2232 25.0584C35.5151 24.7655 34.9098 24.4538 34.5651 24.1918L33.3549 25.7842C33.9102 26.2062 34.709 26.5965 35.4588 26.9066C36.2248 27.2234 37.0252 27.4911 37.6341 27.6483L38.1339 25.7117ZM32.9609 24.9449C32.916 25.9862 32.8697 26.7835 32.8081 27.398C32.7453 28.0237 32.6717 28.3996 32.5947 28.6261C32.5223 28.839 32.4836 28.8114 32.5522 28.7684C32.5984 28.7393 32.5866 28.776 32.34 28.776V30.776C32.7054 30.776 33.1796 30.7362 33.6162 30.4619C34.0751 30.1736 34.3312 29.732 34.4883 29.2699C34.6408 28.8214 34.7315 28.2613 34.7981 27.5977C34.8658 26.923 34.914 26.0778 34.9591 25.0311L32.9609 24.9449ZM32.34 28.776H28.596V30.776H32.34V28.776ZM44.148 15.772L43.9519 14.7914L42.773 15.0272L43.2195 16.1434L44.148 15.772ZM46.02 20.452L45.0915 20.8234L45.4705 21.7707L46.41 21.3728L46.02 20.452ZM51.312 28.048L51.2858 27.0483L49.809 27.087L50.3936 28.4437L51.312 28.048ZM53.22 32.476L52.3016 32.8717L52.5802 33.5182L53.2828 33.474L53.22 32.476ZM47.964 14.8L48.2514 15.7579L48.2591 15.7555L47.964 14.8ZM43.2195 16.1434L45.0915 20.8234L46.9485 20.0806L45.0765 15.4006L43.2195 16.1434ZM46.41 21.3728C47.9365 20.7263 50.472 19.668 53.1381 18.7719C55.8365 17.8649 58.5452 17.168 60.456 17.168V15.168C58.1908 15.168 55.2115 15.9651 52.5009 16.8761C49.758 17.798 47.1635 18.8817 45.63 19.5312L46.41 21.3728ZM60.456 17.168C61.8247 17.168 62.8577 17.575 63.5357 18.185C64.2052 18.7872 64.604 19.6525 64.604 20.74H66.604C66.604 19.1275 65.9948 17.7068 64.8733 16.698C63.7603 15.697 62.2193 15.168 60.456 15.168V17.168ZM64.604 20.74C64.604 22.6643 63.4587 24.1531 61.1262 25.243C58.7647 26.3464 55.3507 26.9418 51.2858 27.0483L51.3382 29.0477C55.5173 28.9382 59.2493 28.3276 61.9728 27.055C64.7253 25.7689 66.604 23.7117 66.604 20.74H64.604ZM50.3936 28.4437L52.3016 32.8717L54.1384 32.0803L52.2304 27.6523L50.3936 28.4437ZM53.2828 33.474C59.1036 33.1079 63.6028 31.7942 66.674 29.6356C69.7894 27.4461 71.392 24.4113 71.392 20.812H69.392C69.392 23.7287 68.1326 26.1659 65.524 27.9994C62.8712 29.8638 58.7844 31.1241 53.1572 31.478L53.2828 33.474ZM71.392 20.812C71.392 17.8479 70.3443 15.3631 68.4485 13.6262C66.5625 11.8981 63.9275 10.992 60.888 10.992V12.992C63.5365 12.992 65.6535 13.7779 67.0975 15.1008C68.5317 16.4149 69.392 18.3401 69.392 20.812H71.392ZM60.888 10.992C58.5812 10.992 55.8637 11.531 53.4632 12.1436C51.0514 12.759 48.8743 13.4723 47.6689 13.8445L48.2591 15.7555C49.5017 15.3717 51.6086 14.681 53.9578 14.0814C56.3183 13.479 58.8388 12.992 60.888 12.992V10.992ZM47.6767 13.8422C46.6175 14.1599 44.9929 14.5832 43.9519 14.7914L44.3441 16.7526C45.4631 16.5288 47.1505 16.0881 48.2513 15.7578L47.6767 13.8422ZM75.763 6.232L75.738 5.23231L74.6662 5.25911L74.7675 6.32647L75.763 6.232ZM76.231 11.164L75.2355 11.2585L75.3418 12.3786L76.4417 12.1416L76.231 11.164ZM91.135 9.112L91.7407 9.9077L94.5901 7.7388L91.0292 8.11761L91.135 9.112ZM100.459 32.584L100.392 33.5818L101.156 33.633L101.405 32.9085L100.459 32.584ZM102.151 27.652L103.097 27.9765L103.527 26.7238L102.204 26.6534L102.151 27.652ZM98.119 9.148L97.8982 8.17268L97.8807 8.17665L97.8634 8.18123L98.119 9.148ZM105.067 8.68L105.086 9.67983L106.075 9.66151L106.067 8.67219L105.067 8.68ZM105.031 4.072L106.031 4.06419L106.023 3.04325L105.002 3.07241L105.031 4.072ZM94.843 4.684L94.7656 3.68696L94.7559 3.6878L94.843 4.684ZM79.327 6.052L79.243 5.05554L79.2353 5.05619L79.2275 5.05696L79.327 6.052ZM74.7675 6.32647L75.2355 11.2585L77.2266 11.0695L76.7586 6.13753L74.7675 6.32647ZM76.4417 12.1416C80.5539 11.2553 87.8368 10.4685 91.2408 10.1064L91.0292 8.11761C87.6652 8.47548 80.2602 9.27269 76.0204 10.1864L76.4417 12.1416ZM90.5293 8.31629C87.9132 10.3077 84.807 14.688 84.807 20.236H86.807C86.807 15.416 89.5329 11.5883 91.7407 9.9077L90.5293 8.31629ZM84.807 20.236C84.807 24.4741 86.7668 27.7175 89.7096 29.9356C92.6244 32.1325 96.4885 33.3203 100.392 33.5818L100.526 31.5862C96.9056 31.3437 93.4436 30.2455 90.9134 28.3384C88.4113 26.4525 86.807 23.7739 86.807 20.236H84.807ZM101.405 32.9085L103.097 27.9765L101.205 27.3275L99.5131 32.2595L101.405 32.9085ZM102.204 26.6534C99.2375 26.4954 96.5219 25.8919 94.5789 24.6984C92.6955 23.5415 91.523 21.8313 91.523 19.264H89.523C89.523 22.6007 91.1225 24.9225 93.5321 26.4026C95.8822 27.8461 98.9805 28.4846 102.098 28.6506L102.204 26.6534ZM91.523 19.264C91.523 17.3637 92.2469 15.3256 93.4943 13.6224C94.7407 11.9205 96.4587 10.6215 98.3747 10.1148L97.8634 8.18123C95.4234 8.82651 93.3434 10.4435 91.8808 12.4406C90.4192 14.4364 89.523 16.8803 89.523 19.264H91.523ZM98.3399 10.1233C100.12 9.72033 103.075 9.71707 105.086 9.67983L105.049 7.68017C103.171 7.71493 99.9344 7.71167 97.8982 8.17268L98.3399 10.1233ZM106.067 8.67219L106.031 4.06419L104.031 4.07981L104.067 8.68781L106.067 8.67219ZM105.002 3.07241C102.457 3.14513 98.4776 3.39869 94.7656 3.687L94.9205 5.681C98.6245 5.39331 102.565 5.14287 105.06 5.07159L105.002 3.07241ZM94.7559 3.6878C88.161 4.26441 82.2299 4.80363 79.243 5.05554L79.4111 7.04846C82.4002 6.79637 88.3491 6.25559 94.9301 5.6802L94.7559 3.6878ZM79.2275 5.05696C78.5454 5.12518 77.1711 5.19649 75.738 5.23231L75.788 7.23169C77.2349 7.19551 78.6687 7.12282 79.4265 7.04704L79.2275 5.05696ZM159.196 6.628L159.96 7.27394L160.574 6.54814L159.88 5.89817L159.196 6.628ZM156.352 3.964L157.036 3.23417L156.609 2.83426L156.051 3.01042L156.352 3.964ZM128.884 3.928L129.04 2.94024L127.884 2.75772V3.928H128.884ZM128.884 8.932H127.884V10.0207L128.969 9.9284L128.884 8.932ZM152.032 8.68L152.916 9.14872L153.695 7.68H152.032V8.68ZM145.408 15.376L144.886 14.5232L143.67 15.2681L144.785 16.1576L145.408 15.376ZM149.152 18.364L148.529 19.1456L149.119 19.6168L149.734 19.1777L149.152 18.364ZM157.792 8.5L158.649 9.01611L158.65 9.01449L157.792 8.5ZM144.508 11.488H145.508V10.488H144.508V11.488ZM139.288 11.488V10.488H138.12L138.3 11.6424L139.288 11.488ZM134.104 27.616L133.535 26.794L133.525 26.801L133.515 26.8082L134.104 27.616ZM130.324 29.596L129.999 28.6503L128.295 29.2362L129.694 30.3723L130.324 29.596ZM134.536 33.016L133.906 33.7923L134.423 34.2119L135.009 33.8971L134.536 33.016ZM159.88 5.89817L157.036 3.23417L155.669 4.69382L158.513 7.35782L159.88 5.89817ZM156.051 3.01042C155.836 3.07826 155.285 3.15466 154.562 3.20991C153.878 3.26215 153.157 3.288 152.68 3.288V5.288C153.212 5.288 153.985 5.25984 154.714 5.20409C155.404 5.15134 156.184 5.06574 156.654 4.91758L156.051 3.01042ZM152.68 3.288H133.276V5.288H152.68V3.288ZM133.276 3.288C131.825 3.288 130.366 3.14958 129.04 2.94024L128.728 4.91576C130.139 5.13841 131.703 5.288 133.276 5.288V3.288ZM127.884 3.928V8.932H129.884V3.928H127.884ZM128.969 9.9284C130.67 9.78367 131.814 9.68 133.276 9.68V7.68C131.714 7.68 130.483 7.79233 128.8 7.9356L128.969 9.9284ZM133.276 9.68H152.032V7.68H133.276V9.68ZM151.149 8.21128C150.741 8.9807 149.873 10.1384 148.727 11.3369C147.588 12.5276 146.232 13.6987 144.886 14.5232L145.931 16.2288C147.465 15.2893 148.953 13.9944 150.172 12.7191C151.384 11.4516 152.388 10.1433 152.916 9.14872L151.149 8.21128ZM144.785 16.1576L148.529 19.1456L149.776 17.5824L146.032 14.5944L144.785 16.1576ZM149.734 19.1777C153.421 16.544 156.925 11.8769 158.649 9.01611L156.936 7.98389C155.276 10.7391 151.94 15.144 148.571 17.5503L149.734 19.1777ZM158.65 9.01449C158.929 8.5492 159.567 7.73778 159.96 7.27394L158.433 5.98206C158.034 6.45422 157.304 7.3708 156.935 7.98551L158.65 9.01449ZM144.508 10.488H139.288V12.488H144.508V10.488ZM138.3 11.6424C138.472 12.7423 138.54 13.6627 138.54 14.728H140.54C140.54 13.5613 140.465 12.5376 140.276 11.3336L138.3 11.6424ZM138.54 14.728C138.54 17.6501 138.323 19.9315 137.601 21.8451C136.894 23.7215 135.674 25.3116 133.535 26.794L134.674 28.438C137.107 26.7524 138.605 24.8505 139.473 22.5509C140.326 20.2885 140.54 17.7099 140.54 14.728H138.54ZM133.515 26.8082C132.273 27.7146 131.068 28.2829 129.999 28.6503L130.649 30.5417C131.885 30.1171 133.272 29.4614 134.694 28.4238L133.515 26.8082ZM129.694 30.3723L133.906 33.7923L135.167 32.2397L130.955 28.8197L129.694 30.3723ZM135.009 33.8971C140.101 31.1641 142.777 27.8299 144.138 23.9607C145.473 20.1635 145.508 15.9207 145.508 11.488H143.508C143.508 15.9833 143.454 19.8765 142.251 23.2973C141.074 26.6461 138.764 29.6119 134.063 32.1349L135.009 33.8971ZM166.233 6.556L166.344 5.56212L165.233 5.43873V6.556H166.233ZM166.233 11.776H165.233V12.8365L166.292 12.7743L166.233 11.776ZM189.345 11.776L189.311 12.7754L190.345 12.8111V11.776H189.345ZM189.345 6.556H190.345V5.44313L189.239 5.56169L189.345 6.556ZM163.209 24.16L163.286 23.1629L162.209 23.0801V24.16H163.209ZM163.209 29.668H162.209V30.7524L163.29 30.6647L163.209 29.668ZM192.333 29.668L192.22 30.6615L193.333 30.7888V29.668H192.333ZM192.333 24.16H193.333V23.0355L192.216 23.1668L192.333 24.16ZM165.233 6.556V11.776H167.233V6.556H165.233ZM166.292 12.7743C167.507 12.7028 169.141 12.632 170.481 12.632V10.632C169.085 10.632 167.407 10.7052 166.175 10.7777L166.292 12.7743ZM170.481 12.632H185.349V10.632H170.481V12.632ZM185.349 12.632C186.59 12.632 188.214 12.7376 189.311 12.7754L189.38 10.7766C188.389 10.7424 186.629 10.632 185.349 10.632V12.632ZM190.345 11.776V6.556H188.345V11.776H190.345ZM189.239 5.56169C188.259 5.66664 186.747 5.772 185.349 5.772V7.772C186.831 7.772 188.415 7.66135 189.452 7.55031L189.239 5.56169ZM185.349 5.772H170.445V7.772H185.349V5.772ZM170.445 5.772C169.249 5.772 167.595 5.70113 166.344 5.56212L166.123 7.54988C167.464 7.69887 169.194 7.772 170.445 7.772V5.772ZM162.209 24.16V29.668H164.209V24.16H162.209ZM163.29 30.6647C164.612 30.5575 166.345 30.452 167.709 30.452V28.452C166.265 28.452 164.47 28.5625 163.128 28.6713L163.29 30.6647ZM167.709 30.452H188.373V28.452H167.709V30.452ZM188.373 30.452C189.423 30.452 191.004 30.5226 192.22 30.6615L192.447 28.6745C191.142 28.5254 189.484 28.452 188.373 28.452V30.452ZM193.333 29.668V24.16H191.333V29.668H193.333ZM192.216 23.1668C191.039 23.3054 189.567 23.376 188.373 23.376V25.376C189.628 25.376 191.18 25.3026 192.45 25.1532L192.216 23.1668ZM188.373 23.376H167.709V25.376H188.373V23.376ZM167.709 23.376C166.346 23.376 164.686 23.2707 163.286 23.1629L163.133 25.1571C164.54 25.2653 166.265 25.376 167.709 25.376V23.376ZM226.461 4.54L227.332 5.03206L227.921 3.99019L226.791 3.59585L226.461 4.54ZM221.097 2.668L221.427 1.72384L220.292 1.32771L220.109 2.51594L221.097 2.668ZM220.233 5.98L219.288 5.65289L219.286 5.66011L219.283 5.66738L220.233 5.98ZM216.237 14.548L215.642 15.3516L216.504 15.99L217.081 15.0856L216.237 14.548ZM206.661 8.032L207.184 7.17924L206.446 6.72775L205.893 7.39182L206.661 8.032ZM203.601 11.704L202.833 11.0638L202.09 11.9556L203.082 12.5585L203.601 11.704ZM213.321 18.544L214.09 19.1835L214.745 18.3959L213.942 17.76L213.321 18.544ZM199.641 29.164L199.205 28.2641L197.869 28.9119L198.972 29.9066L199.641 29.164ZM203.673 32.8L203.004 33.5426L203.529 34.0169L204.151 33.6783L203.673 32.8ZM217.065 21.676L217.718 20.9188L216.947 20.2532L216.296 21.0372L217.065 21.676ZM225.057 29.632L224.297 30.2813L225.036 31.1472L225.799 30.3024L225.057 29.632ZM228.765 25.528L229.507 26.1984L230.127 25.513L229.492 24.8414L228.765 25.528ZM220.125 17.572L219.284 17.0322L218.803 17.7819L219.492 18.346L220.125 17.572ZM224.949 7.78L224.032 7.38127L224.023 7.40292L224.014 7.42499L224.949 7.78ZM226.791 3.59585L221.427 1.72384L220.768 3.61215L226.132 5.48415L226.791 3.59585ZM220.109 2.51594C219.977 3.37284 219.6 4.75142 219.288 5.65289L221.178 6.30711C221.514 5.33657 221.929 3.83516 222.086 2.82005L220.109 2.51594ZM219.283 5.66738C218.367 8.45075 217.176 11.2154 215.394 14.0104L217.081 15.0856C218.971 12.1206 220.227 9.19725 221.183 6.29262L219.283 5.66738ZM216.833 13.7444C213.899 11.5711 210.094 8.96182 207.184 7.17924L206.139 8.88475C208.989 10.6302 212.744 13.2049 215.642 15.3516L216.833 13.7444ZM205.893 7.39182L202.833 11.0638L204.37 12.3442L207.43 8.67218L205.893 7.39182ZM203.082 12.5585C206.707 14.7619 210.128 17.2911 212.701 19.328L213.942 17.76C211.331 15.6929 207.84 13.1101 204.121 10.8495L203.082 12.5585ZM212.553 17.9045C209.077 22.0819 204.942 25.4839 199.205 28.2641L200.077 30.0639C206.077 27.1561 210.437 23.5741 214.09 19.1835L212.553 17.9045ZM198.972 29.9066L203.004 33.5426L204.343 32.0574L200.311 28.4214L198.972 29.9066ZM204.151 33.6783C210.373 30.2914 214.607 26.2024 217.835 22.3148L216.296 21.0372C213.187 24.7816 209.142 28.6846 203.195 31.9217L204.151 33.6783ZM216.412 22.4332C219.262 24.8911 221.816 27.3753 224.297 30.2813L225.818 28.9827C223.259 25.9847 220.629 23.4289 217.718 20.9188L216.412 22.4332ZM225.799 30.3024L229.507 26.1984L228.023 24.8576L224.315 28.9616L225.799 30.3024ZM229.492 24.8414C227.01 22.2125 223.953 19.4116 220.759 16.798L219.492 18.346C222.634 20.9164 225.625 23.6595 228.038 26.2146L229.492 24.8414ZM220.967 18.1118C223.141 14.722 224.79 11.0175 225.884 8.13501L224.014 7.42499C222.949 10.2305 221.358 13.798 219.284 17.0322L220.967 18.1118ZM225.866 8.17872C226.237 7.32521 226.896 5.8027 227.332 5.03206L225.591 4.04794C225.09 4.9333 224.381 6.57879 224.032 7.38127L225.866 8.17872ZM242.51 23.62L241.511 23.662L241.551 24.62H242.51V23.62ZM241.898 9.076H240.898V9.09703L240.899 9.11804L241.898 9.076ZM241.898 2.2V1.2H240.898V2.2H241.898ZM246.542 2.2H247.542V1.2H246.542V2.2ZM246.542 9.076L247.541 9.11804L247.542 9.09703V9.076H246.542ZM245.93 23.62V24.62H246.889L246.929 23.662L245.93 23.62ZM241.43 31H240.43V32H241.43V31ZM241.43 26.428V25.428H240.43V26.428H241.43ZM247.01 26.428H248.01V25.428H247.01V26.428ZM247.01 31V32H248.01V31H247.01ZM243.509 23.578L242.897 9.03396L240.899 9.11804L241.511 23.662L243.509 23.578ZM242.898 9.076V2.2H240.898V9.076H242.898ZM241.898 3.2H246.542V1.2H241.898V3.2ZM245.542 2.2V9.076H247.542V2.2H245.542ZM245.543 9.03396L244.931 23.578L246.929 23.662L247.541 9.11804L245.543 9.03396ZM245.93 22.62H242.51V24.62H245.93V22.62ZM242.43 31V26.428H240.43V31H242.43ZM241.43 27.428H247.01V25.428H241.43V27.428ZM246.01 26.428V31H248.01V26.428H246.01ZM247.01 30H241.43V32H247.01V30Z" fill="white"/>
</g>
<defs>
<filter id="filter0_d" x="0.227798" y="0.623993" width="253.782" height="42.8257" filterUnits="userSpaceOnUse" color-interpolation-filters="sRGB">
<feFlood flood-opacity="0" result="BackgroundImageFix"/>
<feColorMatrix in="SourceAlpha" type="matrix" values="0 0 0 0 0 0 0 0 0 0 0 0 0 0 0 0 0 0 127 0"/>
<feOffset dx="2" dy="4"/>
<feGaussianBlur stdDeviation="2"/>
<feColorMatrix type="matrix" values="0 0 0 0 0 0 0 0 0 0 0 0 0 0 0 0 0 0 0.25 0"/>
<feBlend mode="normal" in2="BackgroundImageFix" result="effect1_dropShadow"/>
<feBlend mode="normal" in="SourceGraphic" in2="effect1_dropShadow" result="shape"/>
</filter>
</defs>
</svg>
